<svg width="13" height="18" viewBox="0 0 13 18" fill="none" xmlns="http://www.w3.org/2000/svg">
<g clip-path="url(#clip0_27_419)">
<path d="M10.4768 5.20985L1.55079 1.60298C1.28054 1.49378 1.14541 1.43917 1.05198 1.52082C0.958557 1.60245 0.958557 1.77512 0.958557 2.12045V10.0909L10.4768 6.24477C11.0062 6.03084 11.2709 5.92388 11.2709 5.72731C11.2709 5.53074 11.0062 5.42377 10.4768 5.20985Z" fill="#01674F"/>
<path d="M0.958557 10.0909V15.5455V16.6364M0.958557 10.0909V2.12045C0.958557 1.77512 0.958557 1.60245 1.05198 1.52082C1.14541 1.43917 1.28054 1.49378 1.55079 1.60298L10.4768 5.20985C11.0062 5.42377 11.2709 5.53074 11.2709 5.72731C11.2709 5.92388 11.0062 6.03084 10.4768 6.24477L0.958557 10.0909Z" stroke="#01674F" stroke-width="2" stroke-linecap="round"/>
</g>
<defs>
<clipPath id="clip0_27_419">
<rect width="12.0538" height="18" fill="white"/>
</clipPath>
</defs>
</svg>
