<svg width="30" height="30" viewBox="0 0 30 30" fill="none" xmlns="http://www.w3.org/2000/svg">
<g clip-path="url(#clip0_59_3)">
<path fill-rule="evenodd" clip-rule="evenodd" d="M14.9998 0.203369H1.37438C0.727525 0.203369 0.203125 0.727775 0.203125 1.37463V28.6254C0.203125 29.2722 0.727531 29.7967 1.37438 29.7967H28.6252C29.272 29.7967 29.7964 29.2722 29.7964 28.6254V1.37463C29.7964 0.727769 29.272 0.203369 28.6252 0.203369H14.9998Z" fill="#01674F" stroke="#01674F" stroke-width="6.7782"/>
<path d="M12.408 10.7772C13.328 11.7687 13.9018 12.4019 14.3129 13.3296C14.5137 13.7961 14.6155 14.11 14.6771 14.3996C14.7307 14.6518 14.7544 14.8871 14.7853 15.1948C14.7901 15.2426 14.7951 15.292 14.8004 15.3436C14.8086 15.4343 14.8175 15.5253 14.8266 15.6174C14.8922 16.287 14.9631 17.0109 14.8012 18.0439C14.7628 18.2708 14.7173 18.5657 14.6653 18.902C14.5785 19.4632 14.4739 20.1399 14.355 20.8091C14.2602 21.3425 14.1571 21.8665 14.0481 22.3155C13.9386 22.7663 13.8251 23.1336 13.7112 23.3589C13.4855 23.7868 13.1533 23.9128 12.851 23.899C12.538 23.8848 12.2607 23.7213 12.1563 23.5727C12.1427 23.551 12.1304 23.5066 12.1319 23.4275C12.1333 23.35 12.1475 23.2525 12.1729 23.1379C12.2237 22.9087 12.3154 22.6263 12.4201 22.3256C12.4606 22.2094 12.5031 22.0901 12.5457 21.9707C12.6123 21.784 12.6791 21.5968 12.7383 21.4203C12.8354 21.131 12.9162 20.8593 12.9467 20.6488L12.9468 20.648C12.9964 20.2866 13.0022 20.1653 13.0123 19.954C13.0136 19.9269 13.0149 19.8982 13.0165 19.8673C13.0299 19.5993 13.0567 19.1592 13.166 18.0699L12.9774 18.0144C12.4318 19.0808 11.3738 20.435 10.5332 21.1521C10.1053 21.5094 9.52977 21.9597 8.98636 22.3318C8.71449 22.518 8.45208 22.6836 8.22111 22.8082C7.98803 22.9338 7.79618 23.0124 7.66213 23.0333C7.53454 23.0502 7.43358 23.0229 7.35441 22.9711C7.27362 22.9182 7.20954 22.8357 7.16555 22.7344C7.07611 22.5285 7.0792 22.2674 7.16867 22.0889L7.16867 22.0889L7.16912 22.088C7.21162 22.001 7.30057 21.9032 7.43132 21.7941C7.56041 21.6863 7.7214 21.5747 7.89812 21.4579C7.9669 21.4124 8.03812 21.3661 8.1105 21.3191C8.40563 21.1274 8.72004 20.9232 8.96616 20.71L8.96616 20.71L8.96713 20.7092C9.01844 20.6635 9.07048 20.6174 9.12302 20.5709C9.66995 20.0864 10.2715 19.5535 10.6778 19.01L10.6778 19.01L10.6786 19.009C10.737 18.9286 10.7955 18.851 10.853 18.7747C11.213 18.2967 11.5344 17.87 11.5759 17.15L11.5759 17.15L11.576 17.148C11.5915 16.7285 11.4739 16.1549 11.3028 15.5927C11.131 15.0284 10.9017 14.4641 10.6859 14.0602L10.6857 14.0598C10.4672 13.6548 10.2061 13.2895 9.94939 12.9518C9.86786 12.8446 9.78717 12.7407 9.70843 12.6393C9.53745 12.4191 9.37566 12.2107 9.23432 12.0061C9.1278 11.8507 9.0205 11.7114 8.92136 11.5838C8.9133 11.5735 8.9053 11.5632 8.89737 11.553C8.807 11.4368 8.72503 11.3314 8.65502 11.2297C8.50254 11.0082 8.41942 10.8215 8.43558 10.6169C8.46941 10.1884 8.79183 9.86931 9.19779 9.65876C9.3842 9.56312 9.65513 9.5428 9.96351 9.52871C9.98656 9.52766 10.0098 9.52664 10.0332 9.52562C10.3106 9.51347 10.6093 9.50039 10.8493 9.41739L10.8493 9.41741L10.8516 9.41654C11.3359 9.2355 11.7397 8.97658 12.0707 8.61392C12.7602 8.31646 13.305 8.15339 13.7185 8.11062L13.7185 8.11062L13.7192 8.11054C13.9211 8.08825 14.0953 8.10251 14.2308 8.14202C14.3671 8.18173 14.4567 8.24446 14.503 8.31325C14.5577 8.39767 14.6023 8.49133 14.6006 8.60463C14.599 8.71724 14.5514 8.86643 14.3863 9.05969C14.0418 9.45957 13.3952 9.97274 12.4254 10.6262L12.3285 10.6915L12.408 10.7772Z" fill="white" stroke="#01674F" stroke-width="0.2"/>
<path d="M6.33644 13.5967C6.33646 13.5967 6.33565 13.5968 6.33396 13.5969L6.33644 13.5967Z" fill="white" stroke="white" stroke-width="1.2055"/>
<path d="M9.637 7.74202C8.95695 7.74202 8.40915 7.19423 8.40915 6.51424C8.40915 5.83628 8.95745 5.28647 9.637 5.28647C10.3145 5.28647 10.8648 5.83684 10.8648 6.51424C10.8648 7.19369 10.3151 7.74202 9.637 7.74202Z" fill="white" stroke="white" stroke-width="1.2055"/>
<mask id="path-5-inside-1_59_3" fill="white">
<path fill-rule="evenodd" clip-rule="evenodd" d="M20.7504 3.46252V18.3097H20.1958V3.46252H20.7504Z"/>
</mask>
<path fill-rule="evenodd" clip-rule="evenodd" d="M20.7504 3.46252V18.3097H20.1958V3.46252H20.7504Z" fill="black"/>
<path d="M20.7504 3.46252H21.9559V2.25702H20.7504V3.46252ZM20.7504 18.3097V19.5152H21.9559V18.3097H20.7504ZM20.1958 18.3097H18.9903V19.5152H20.1958V18.3097ZM20.1958 3.46252V2.25702H18.9903V3.46252H20.1958ZM19.5449 3.46252V18.3097H21.9559V3.46252H19.5449ZM20.7504 17.1042H20.1958V19.5152H20.7504V17.1042ZM21.4013 18.3097V3.46252H18.9903V18.3097H21.4013ZM20.1958 4.66802H20.7504V2.25702H20.1958V4.66802Z" fill="white" mask="url(#path-5-inside-1_59_3)"/>
<path d="M21.6943 4.44609L23.9839 5.76705L21.6943 7.08784V4.44609Z" fill="white" stroke="white" stroke-width="1.2055"/>
<path d="M24.2393 19.5844C24.0971 19.5844 23.9802 19.4677 23.9802 19.3253C23.9802 19.1865 24.096 19.0687 24.2393 19.0687C24.3841 19.0687 24.4985 19.1854 24.4985 19.3253C24.4985 19.4689 24.3829 19.5844 24.2393 19.5844Z" fill="white" stroke="white" stroke-width="1.2055"/>
</g>
<defs>
<clipPath id="clip0_59_3">
<rect width="30" height="30" fill="white"/>
</clipPath>
</defs>
</svg>
