<svg width="13" height="14" viewBox="0 0 13 14" fill="none" xmlns="http://www.w3.org/2000/svg">
<path d="M1 1.42857V7.85714H4.92554C5.19492 7.85714 5.32956 7.85714 5.43778 7.92117C5.54609 7.98512 5.60629 8.1004 5.72677 8.33097L6.12739 9.0976C6.24788 9.32817 6.30808 9.44346 6.41639 9.5074C6.5246 9.57143 6.65925 9.57143 6.92862 9.57143H11.3021C11.5132 9.57143 11.6188 9.57143 11.6844 9.50869C11.75 9.44594 11.75 9.34489 11.75 9.14286V3.14286C11.75 2.94083 11.75 2.83981 11.6844 2.77705C11.6188 2.71429 11.5132 2.71429 11.3021 2.71429H6.92862C6.65925 2.71429 6.5246 2.71429 6.41639 2.65028C6.30808 2.58627 6.24788 2.471 6.12739 2.24047L5.72677 1.47382C5.60629 1.24328 5.54609 1.12801 5.43778 1.064C5.32956 1 5.19492 1 4.92554 1H1.44792C1.23677 1 1.13119 1 1.06559 1.06276C1 1.12553 1 1.22654 1 1.42857Z" fill="#FF0000"/>
<path d="M1 7.85714V13M1 7.85714V1.42857C1 1.22654 1 1.12553 1.06559 1.06276C1.13119 1 1.23677 1 1.44792 1H4.92554C5.19492 1 5.32956 1 5.43778 1.064C5.54609 1.12801 5.60628 1.24328 5.72677 1.47382L6.12739 2.24047C6.24788 2.471 6.30808 2.58627 6.41639 2.65028C6.5246 2.71429 6.65925 2.71429 6.92862 2.71429H11.3021C11.5132 2.71429 11.6188 2.71429 11.6844 2.77705C11.75 2.83981 11.75 2.94083 11.75 3.14286V9.14286C11.75 9.34489 11.75 9.44594 11.6844 9.50869C11.6188 9.57143 11.5132 9.57143 11.3021 9.57143H6.92862C6.65925 9.57143 6.5246 9.57143 6.41639 9.5074C6.30808 9.44346 6.24788 9.32817 6.12739 9.0976L5.72677 8.33097C5.60628 8.1004 5.54609 7.98511 5.43778 7.92117C5.32956 7.85714 5.19492 7.85714 4.92554 7.85714H1Z" stroke="black" stroke-width="2" stroke-linecap="round"/>
</svg>
